# xmcd
#
# Track frame offsets:
#	150
#	13490
#	29343
#	41922
#	60646
#	73925
#	90150
#	114900
#	128775
#	139098
#	155296
#
# Disc length: 2274 seconds
#
# Revision: 1
# Processed by: cddbd v1.5.2PL0 Copyright (c) Steve Scherf et al.
# Submitted via: audiograbber 1.83.01
#
DISCID=9308e00b
DTITLE=Jimmy Lee Jones - Real Go Gitter
DYEAR=2001
DGENRE=Country
TTITLE0=Real Go Gitter
TTITLE1=Valley Far Below
TTITLE2=Sittin' On a Hill in Comfort TX
TTITLE3=Wind Blows Through West Texas
TTITLE4=All  For You
TTITLE5=Must Not Be Drinkin' Enough
TTITLE6=Ghost Riders Trilogy
TTITLE7=Hondo
TTITLE8=My Name Is Earl
TTITLE9=Uncle Buds Ol'  Red Tractor
TTITLE10=My Baby's All Liquored Up
EXTD=
EXTT0=
EXTT1=
EXTT2=
EXTT3=
EXTT4=
EXTT5=
EXTT6=
EXTT7=
EXTT8=
EXTT9=
EXTT10=
PLAYORDER=
